{"scene":0,"asset":{"generator":"ImageToStl.com","version":"2.0"},"scenes":[{"name":"Scene","nodes":[0]}],"nodes":[{"name":"Node0","children":[1,3,5]},{"name":"Node1","children":[2]},{"name":"Node2","mesh":0},{"name":"Node3","children":[4]},{"name":"Node4","mesh":1},{"name":"Node5","children":[6]},{"name":"Node6","mesh":2}],"materials":[{"name":"x1","pbrMetallicRoughness":{"baseColorFactor":[0.85,0.85,0.85,1.0],"metallicFactor":0.05,"roughnessFactor":0.5},"doubleSided":true}],"meshes":[{"name":"Mesh0","primitives":[{"indices":1,"material":0,"attributes":{"POSITION":0}}]},{"name":"Mesh0","primitives":[{"indices":3,"material":0,"attributes":{"POSITION":2}}]},{"name":"Mesh0","primitives":[{"indices":5,"material":0,"attributes":{"POSITION":4}}]}],"accessors":[{"bufferView":0,"componentType":5126,"count":12332,"type":"VEC3","min":[52.62983,53.611496,-1.4210855E-14],"max":[204.6168,205.6045,176.827]},{"bufferView":1,"componentType":5123,"count":76236,"type":"SCALAR"},{"bufferView":2,"componentType":5126,"count":4590,"type":"VEC3","min":[57.951942,55.951054,1.0658141E-14],"max":[244.2213,197.95078,40.98]},{"bufferView":3,"componentType":5123,"count":27528,"type":"SCALAR"},{"bufferView":4,"componentType":5126,"count":5164,"type":"VEC3","min":[108.38647,106.14517,0.0],"max":[149.3574,147.13065,250.0]},{"bufferView":5,"componentType":5123,"count":30972,"type":"SCALAR"}],"bufferViews":[{"target":34962,"buffer":0,"byteLength":147984,"byteOffset":0},{"target":34963,"buffer":0,"byteLength":152472,"byteOffset":147984},{"target":34962,"buffer":0,"byteLength":55080,"byteOffset":300456},{"target":34963,"buffer":0,"byteLength":55056,"byteOffset":355536},{"target":34962,"buffer":0,"byteLength":61968,"byteOffset":410592},{"target":34963,"buffer":0,"byteLength":61944,"byteOffset":472560}],"buffers":[{"byteLength":534504,"uri":"data:application/octet-stream;base64,"}]}